<?xml version="1.0" encoding="UTF-8" standalone="no"?>
<svg
   viewBox="0 0 2654.9999 1067.7632"
   version="1.1"
   id="svg48"
   sodipodi:docname="30DMC_Tag_.svg"
   width="2950"
   height="1186.4036"
   inkscape:export-filename="..\..\..\..\..\Pictures\Saved Pictures\logo.png"
   inkscape:export-xdpi="300"
   inkscape:export-ydpi="300"
   inkscape:version="1.1.2 (0a00cf5339, 2022-02-04)"
   xml:space="preserve"
   xmlns:inkscape="http://www.inkscape.org/namespaces/inkscape"
   xmlns:sodipodi="http://sodipodi.sourceforge.net/DTD/sodipodi-0.dtd"
   xmlns:xlink="http://www.w3.org/1999/xlink"
   xmlns="http://www.w3.org/2000/svg"
   xmlns:svg="http://www.w3.org/2000/svg"
   xmlns:rdf="http://www.w3.org/1999/02/22-rdf-syntax-ns#"
   xmlns:cc="http://creativecommons.org/ns#"
   xmlns:dc="http://purl.org/dc/elements/1.1/"><metadata
     id="metadata52"><rdf:RDF><cc:Work
         rdf:about=""><dc:format>image/svg+xml</dc:format><dc:type
           rdf:resource="http://purl.org/dc/dcmitype/StillImage" /></cc:Work></rdf:RDF></metadata><sodipodi:namedview
     pagecolor="#292929"
     bordercolor="#666666"
     borderopacity="1"
     objecttolerance="10"
     gridtolerance="10"
     guidetolerance="10"
     inkscape:pageopacity="0"
     inkscape:pageshadow="2"
     inkscape:window-width="1366"
     inkscape:window-height="705"
     id="namedview50"
     showgrid="false"
     inkscape:pagecheckerboard="false"
     inkscape:zoom="0.12680639"
     inkscape:cx="1218.3929"
     inkscape:cy="555.96569"
     inkscape:window-x="0"
     inkscape:window-y="37"
     inkscape:window-maximized="1"
     inkscape:current-layer="Layer_1"
     inkscape:showpageshadow="2"
     inkscape:deskcolor="#292929"
     width="1e-05px"
     scale-x="0.9" /><defs
     id="defs21"><style
       id="style2">.cls-1{fill:url(#linear-gradient);}.cls-2{fill:url(#linear-gradient-2);}.cls-3{fill:url(#linear-gradient-3);}.cls-4{fill:url(#linear-gradient-4);}.cls-5{fill:url(#linear-gradient-5);}.cls-6{fill:url(#linear-gradient-6);}.cls-7{fill:url(#linear-gradient-7);}.cls-8{fill:url(#linear-gradient-8);}.cls-9{fill:url(#linear-gradient-9);}.cls-10{fill:url(#linear-gradient-10);}.cls-11{fill:url(#linear-gradient-11);}.cls-12{font-size:596.56px;fill:#806c76;font-family:Roboto-Black, Roboto;font-weight:800;letter-spacing:0.15em;}</style><linearGradient
       id="linear-gradient"
       x1="632.07001"
       y1="131.3"
       x2="655.90997"
       y2="131.3"
       gradientUnits="userSpaceOnUse"><stop
         offset="0"
         stop-color="#7c7474"
         id="stop4" /><stop
         offset="0.24"
         stop-color="#7d7175"
         id="stop6" /><stop
         offset="1"
         stop-color="#806c76"
         id="stop8" /></linearGradient><linearGradient
       id="linear-gradient-2"
       x1="689.97998"
       y1="196.82001"
       x2="713.81"
       y2="196.82001"
       xlink:href="#linear-gradient"
       gradientTransform="translate(-287.17797,19.516945)" /><linearGradient
       id="linear-gradient-3"
       x1="832.46997"
       y1="78.730003"
       x2="856.29999"
       y2="78.730003"
       xlink:href="#linear-gradient"
       gradientTransform="translate(-287.17797,19.516945)" /><linearGradient
       id="linear-gradient-4"
       x1="818.40002"
       y1="252.36"
       x2="848.84003"
       y2="252.36"
       xlink:href="#linear-gradient"
       gradientTransform="translate(-287.17797,19.516945)" /><linearGradient
       id="linear-gradient-5"
       x1="881.22998"
       y1="156.44"
       x2="905.06"
       y2="156.44"
       xlink:href="#linear-gradient"
       gradientTransform="translate(-287.17797,19.516945)" /><linearGradient
       id="linear-gradient-6"
       x1="763.13"
       y1="285.22"
       x2="786.96002"
       y2="285.22"
       xlink:href="#linear-gradient"
       gradientTransform="translate(-287.17797,19.516945)" /><linearGradient
       id="linear-gradient-7"
       x1="898"
       y1="287.5"
       x2="921.83002"
       y2="287.5"
       xlink:href="#linear-gradient"
       gradientTransform="translate(-287.17797,19.516945)" /><linearGradient
       id="linear-gradient-8"
       x1="726.56"
       y1="58.150002"
       x2="750.39001"
       y2="58.150002"
       xlink:href="#linear-gradient"
       gradientTransform="translate(-287.17797,19.516945)" /><linearGradient
       id="linear-gradient-9"
       x1="773.03998"
       y1="388.07999"
       x2="796.85999"
       y2="388.07999"
       xlink:href="#linear-gradient"
       gradientTransform="translate(-287.17797,19.516945)" /><linearGradient
       id="linear-gradient-10"
       x1="344.76999"
       y1="229.75999"
       x2="973.20001"
       y2="229.75999"
       xlink:href="#linear-gradient"
       gradientTransform="translate(-505.13091,-721.99697)" /><linearGradient
       id="linear-gradient-11"
       x1="713.59998"
       y1="353.03"
       x2="737.42999"
       y2="353.03"
       xlink:href="#linear-gradient"
       gradientTransform="translate(-287.17797,19.516945)" /></defs><g
     id="Layer_1"
     data-name="Layer 1"
     transform="translate(-67.610744,841.89618)"
     style="fill:#000000;stroke:#000000;stroke-opacity:1"><text
       class="cls-12"
       id="text45"
       x="91.83506"
       y="211.97433"
       style="font-weight:800;font-size:1483.25px;font-family:Roboto-Black, Roboto;letter-spacing:0.15em;fill:#ffffff;stroke:#ffffff;stroke-width:52.2582;stroke-miterlimit:4;stroke-dasharray:none;stroke-opacity:1"
       transform="scale(1.0651242,0.93885763)">#</text><text
       xml:space="preserve"
       style="font-style:normal;font-variant:normal;font-weight:normal;font-stretch:normal;font-size:1053.26px;line-height:1;font-family:'Roboto Slab';-inkscape-font-specification:'Roboto Slab';letter-spacing:0px;word-spacing:0px;fill:#ffffff;fill-opacity:1;stroke:#ffffff;stroke-width:67.6478;stroke-miterlimit:4;stroke-dasharray:none;stroke-opacity:1"
       x="1439.0801"
       y="138.30142"
       id="text866"
       transform="scale(1.0649107,0.93904587)"><tspan
         sodipodi:role="line"
         x="1439.0801"
         y="138.30142"
         id="tspan868"
         style="font-style:normal;font-variant:normal;font-weight:normal;font-stretch:normal;font-family:Roboto-Black, Roboto;-inkscape-font-specification:'Roboto-Black, Roboto';text-align:center;text-anchor:middle;fill:#ffffff;stroke:#ffffff;stroke-width:67.6478;stroke-miterlimit:4;stroke-dasharray:none;stroke-opacity:1">30</tspan></text><path
       style="fill:#ffffff;stroke:#ffffff;stroke-width:3.84224;stroke-opacity:1"
       d="m 2398.2377,217.3845 c -9.6229,-2.83869 -20.686,-4.76777 -24.5835,-4.28685 -5.2641,0.64973 -6.863,-1.40862 -6.2176,-8.00566 0.7114,-7.27245 -1.146,-9.08371 -10.2585,-10.00405 -6.1198,-0.61809 -14.3117,-3.79264 -18.2039,-7.05458 -6.8274,-5.72146 -6.7725,-6.59673 1.5447,-24.79798 4.7412,-10.37702 7.7712,-19.83195 6.734,-21.01089 -1.0379,-1.1789 -9.7286,0.79209 -19.3136,4.38006 -9.585,3.588 -18.3553,6.42524 -19.4898,6.30496 -1.1339,-0.12073 -5.5828,-7.85115 -9.8861,-17.17976 l -7.823,-16.96102 21.6302,-34.750499 c 11.8961,-19.112809 20.1025,-35.447223 18.2364,-36.298731 -1.8669,-0.851507 -9.9225,2.172585 -17.9019,6.720199 l -14.5082,8.268414 -7.5553,-14.254171 c -9.3744,-17.683983 -10.2448,-42.2107655 -2.1139,-59.552656 3.9015,-8.319759 21.4284,-25.286535 47.5537,-46.033815 22.7558,-18.071766 40.3135,-34.062651 39.0171,-35.535412 -1.2964,-1.47275 -7.6608,1.127 -14.1433,5.777161 -24.1597,17.329745 -74.2805,40.286247 -78.2106,35.821836 -2.0837,-2.367265 -5.9641,-13.237362 -8.6225,-24.15566 l -4.8343,-19.851519 18.5517,-18.406817 c 30.2864,-30.04997 58.8705,-52.59845 88.9408,-70.15943 39.6741,-23.16979 39.3163,-22.75532 19.3816,-22.44641 -11.129,0.17253 -29.929,5.74446 -51.4997,15.26376 -66.176,29.20379 -70.5197,29.70521 -77.4853,8.94426 -2.6434,-7.87837 -7.4297,-17.62227 -10.6366,-21.6532 -5.4604,-6.86316 -4.8869,-8.07533 9.019,-19.07109 25.1234,-19.86506 68.4856,-45.14788 107.9075,-62.91637 53.7229,-24.21432 52.7483,-23.56929 34.4146,-22.77928 -20.6325,0.88919 -43.5518,9.23283 -98.6521,35.91448 -53.9922,26.14476 -74.9011,33.94542 -87.5624,32.66667 -6.348,-0.64113 -15.5809,-8.28189 -27.9042,-23.09224 -10.1296,-12.17377 -18.2681,-23.66695 -18.0847,-25.54033 0.6144,-6.28115 70.9516,-51.8008 147.3018,-95.32847 46.0555,-26.25637 42.2239,-23.66092 39.4984,-26.75733 -2.6071,-2.96167 -15.5043,0.23018 -87.773,21.72104 -55.2338,16.42516 -91.7189,30.71882 -119.234,46.71151 -13.214,7.68065 -16.898,8.44559 -19.03,3.95181 -1.4537,-3.06476 -7.5197,-12.58432 -13.4801,-21.15452 -5.9603,-8.57022 -10.4542,-19.08629 -9.9871,-23.36908 2.598,-23.80441 42.4509,-59.19004 101.7646,-90.3551 15.6569,-8.22663 28.5337,-15.64206 28.6156,-16.47877 0.5409,-5.52925 -18.3869,-1.14333 -40.7628,9.44567 -14.462,6.84368 -29.1479,11.62883 -32.6343,10.63369 -8.1948,-2.33888 -15.683,-21.26583 -11.7979,-29.82032 1.6563,-3.64628 12.0717,-13.42552 23.146,-21.73168 11.0744,-8.30615 18.9258,-16.47588 17.448,-18.15499 -1.4781,-1.67913 -4.0996,-1.4164 -5.8261,0.58376 -7.5409,8.73751 -41.574,23.45479 -62.0844,26.84791 -36.7996,6.08769 -59.6835,-8.4586 -53.1167,-33.76365 2.4033,-9.26066 1.5206,-10.59867 -7.5971,-11.51956 -14.5795,-1.47248 -26.9668,-12.62047 -25.9195,-23.32611 0.8421,-8.60763 -0.2495,-9.13078 -24.0745,-11.53704 -28.8735,-2.91616 -37.4405,-8.90187 -26.2494,-18.34059 4.9479,-4.17347 6.0788,-7.44516 3.5616,-10.3048 -2.5169,-2.85964 -9.4352,-0.57239 -21.7917,7.20399 -9.957,6.26664 -19.2707,11.26311 -20.6969,11.1033 -1.4265,-0.15924 -6.0177,-7.34862 -10.2025,-15.975 -6.8141,-14.04447 -8.7625,-15.51011 -18.6318,-14.01667 -24.7474,3.74479 -54.4231,-6.07692 -62.2047,-20.58773 -5.7469,-10.71688 2.6676,-20.5936 30.9621,-36.34248 27.692,-15.4132 22.0288,-20.75013 -12.432,-11.71694 -14.9536,3.91979 -31.1176,6.19446 -35.9197,5.05494 -9.5992,-2.27773 -26.2327,-32.65572 -21.2345,-38.78077 1.6041,-1.96659 15.6906,-8.0716 31.303,-13.56668 27.2606,-9.59496 39.0751,-16.55057 29.7177,-17.49565 -2.4348,-0.24591 -17.2231,0.1023 -32.8633,0.77371 -37.5205,1.61087 -48.416,-3.63195 -44.4068,-21.36856 2.5605,-11.33235 1.7028,-12.76063 -10.8159,-18.00433 -7.4785,-3.13253 -15.7412,-6.78132 -18.3621,-8.10851 -7.1668,-3.62975 -6.7456,7.45645 0.8355,21.97573 3.6994,7.08473 6.2908,17.39819 5.7592,22.91882 -0.9958,10.17913 6.5313,29.03809 19.7304,49.52775 3.997,6.2044 6.4098,13.09412 5.3621,15.3106 -2.6515,5.6083 -32.6763,-27.9673 -31.9634,-35.74344 0.3013,-3.48045 -2.855,-15.29965 -7.0526,-26.26882 -5.0381,-13.16624 -6.177,-21.05136 -3.3511,-23.20243 5.2764,-4.0163 -2.8479,-24.70813 -15.9528,-40.63058 l -9.1994,-11.17767 9.6671,0.97636 c 16.233,1.6395 62.4878,20.59831 70.5513,28.91732 6.1575,6.35218 15.9323,9.07191 51.5067,14.33088 36.2441,5.35797 47.1566,8.44338 62.5301,17.67966 26.1008,15.68136 28.3643,19.7248 21.65,38.67999 -6.6829,18.8676 -10.0487,46.91586 -5.6837,47.3567 6.4654,0.65301 20.5763,46.3458 17.1315,55.47113 -3.271,8.66574 -2.9355,8.88855 10.1991,6.76153 7.4707,-1.20969 14.397,-2.11721 15.3915,-2.01676 0.995,0.10044 15.58,-10.85072 32.4109,-24.33606 23.4724,-18.80618 33.8953,-24.70058 44.7361,-25.29931 13.4898,-0.7452 14.3865,-0.0568 19.7142,15.13356 5.2047,14.83793 5.093,16.32692 -1.6515,22.01569 -6.7646,5.7053 -6.7617,6.78849 0.048,16.68601 5.8631,8.52356 6.5046,13.70652 3.2943,26.61788 -3.7925,15.25032 -3.4393,16.27433 7.2377,20.96911 7.0051,3.08016 12.4941,9.23252 14.6002,16.36501 1.8563,6.2861 6.1269,11.70717 9.4903,12.04687 3.3636,0.3397 36.2005,-9.7601 72.9714,-22.44394 36.7711,-12.68386 69.1673,-22.82817 71.9922,-22.54286 2.8251,0.28534 8.1619,6.53012 11.8602,13.87741 l 6.7237,13.35857 -10.8213,12.11702 c -19.2405,21.544 -16.4066,23.27021 26.7736,16.30941 15.6348,-2.52036 31.5064,-4.27142 35.2704,-3.89125 9.3252,0.94181 17.084,20.02661 12.0487,29.63707 -5.6027,10.69337 -31.7295,29.13787 -60.4598,42.68294 -13.5428,6.38481 -24.7779,13.03265 -24.9674,14.77305 -0.5576,5.12395 17.005,1.44056 65.269,-13.68834 41.399,-12.97705 48.9556,-14.12344 86.0813,-13.06032 22.3837,0.64093 43.4047,2.12471 46.7128,3.29717 3.308,1.17242 10.8896,12.55168 16.8483,25.2872 l 10.8342,23.15553 -14.1224,19.83905 c -9.3969,13.2 -12.9202,21.20514 -10.5295,23.92134 4.1108,4.6707 43.3514,-3.15245 97.1568,-19.36972 20.8901,-6.29642 41.1489,-9.80968 52.3318,-9.07517 16.2085,1.06465 19.343,2.69635 28.0642,14.60821 5.4001,7.37542 10.4524,18.78639 11.2277,25.35777 1.4824,12.57604 -0.2793,14.41065 -30.9356,32.20922 l -12.6485,7.34361 18.0066,-0.0429 c 9.9041,-0.0236 21.8329,-0.72665 26.5093,-1.56226 7.3324,-1.3102 9.9389,2.12072 18.9369,24.93075 7.1801,18.20068 9.1549,28.07556 6.3317,31.66198 -2.2572,2.86653 -23.3472,14.58961 -46.8662,26.05125 l -42.7625,20.83932 13.3826,13.94083 c 30.6545,31.93267 4.9009,61.23008 -103.612,117.87234 -26.1994,13.6758 -54.0142,30.412766 -61.8106,37.193354 -15.3042,13.31001 -15.8398,18.166406 -4.5558,41.331211 l 6.0813,12.485933 -35.1367,42.343911 c -42.7933,51.571486 -43.4773,52.802429 -34.8073,62.652378 6.9797,7.929123 9.8015,35.139343 7.1527,68.954623 -1.107,14.1378 -0.026,17.69736 5.5557,18.26311 3.8128,0.38632 6.6889,3.19374 6.391,6.23821 -0.2977,3.04449 -2.3245,5.35533 -4.5034,5.13527 -10.8007,-1.09085 -2.4731,7.29807 14.2867,14.39125 20.4767,8.66625 33.3524,20.56512 19.9932,18.47648 -4.058,-0.63458 -15.2519,-3.47607 -24.8761,-6.31489 z m -142.3274,-866.0624 c -2.6367,-1.30441 -3.6372,-3.78862 -2.2242,-5.52054 3.9914,-4.89158 16.499,-2.35127 21.3671,4.33964 3.6978,5.08219 2.9127,5.83793 -4.98,4.79296 -5.1532,-0.68205 -11.5266,-2.30772 -14.1629,-3.61206 z m -61.8108,-11.98894 c -6.3285,-2.78795 -15.0935,-8.77609 -19.4776,-13.30703 -6.1742,-6.38081 -11.131,-8.00899 -21.9844,-7.22181 -7.8536,0.56955 -14.9126,-0.68076 -16.0597,-2.84446 -2.6129,-4.92899 11.4246,-10.32773 23.6442,-9.09357 10.3453,1.04484 41.5726,18.72266 55.9576,31.67728 l 9.1914,8.27752 -9.8829,-1.20953 c -5.4355,-0.66521 -15.0601,-3.49047 -21.3886,-6.27842 z"
       id="path522"
       sodipodi:nodetypes="sssssssscscssscsssscsscsssssssssssssssssssssssssssssssssssscsssssssssssssscsscssscssssssssssssssssssssscsssssssssscssssssscssssscsssscsssssssssssssssssssscsss" /></g></svg>
