<?xml version="1.0" encoding="UTF-8" standalone="no"?>
<svg
   viewBox="0 0 2081.941 878.24015"
   version="1.1"
   id="svg48"
   sodipodi:docname="30DMC_Tag_.svg"
   width="2313.2678"
   height="975.82239"
   inkscape:export-filename="..\..\..\..\..\Pictures\Saved Pictures\logo.png"
   inkscape:export-xdpi="300"
   inkscape:export-ydpi="300"
   inkscape:version="1.1.2 (0a00cf5339, 2022-02-04)"
   xml:space="preserve"
   xmlns:inkscape="http://www.inkscape.org/namespaces/inkscape"
   xmlns:sodipodi="http://sodipodi.sourceforge.net/DTD/sodipodi-0.dtd"
   xmlns:xlink="http://www.w3.org/1999/xlink"
   xmlns="http://www.w3.org/2000/svg"
   xmlns:svg="http://www.w3.org/2000/svg"
   xmlns:rdf="http://www.w3.org/1999/02/22-rdf-syntax-ns#"
   xmlns:cc="http://creativecommons.org/ns#"
   xmlns:dc="http://purl.org/dc/elements/1.1/"><metadata
     id="metadata52"><rdf:RDF><cc:Work
         rdf:about=""><dc:format>image/svg+xml</dc:format><dc:type
           rdf:resource="http://purl.org/dc/dcmitype/StillImage" /></cc:Work></rdf:RDF></metadata><sodipodi:namedview
     pagecolor="#292929"
     bordercolor="#666666"
     borderopacity="1"
     objecttolerance="10"
     gridtolerance="10"
     guidetolerance="10"
     inkscape:pageopacity="0"
     inkscape:pageshadow="2"
     inkscape:window-width="1366"
     inkscape:window-height="705"
     id="namedview50"
     showgrid="false"
     inkscape:pagecheckerboard="false"
     inkscape:zoom="0.17933131"
     inkscape:cx="2464.7118"
     inkscape:cy="699.82202"
     inkscape:window-x="0"
     inkscape:window-y="37"
     inkscape:window-maximized="1"
     inkscape:current-layer="Layer_1"
     inkscape:showpageshadow="2"
     inkscape:deskcolor="#292929"
     width="1e-05px"
     scale-x="0.9" /><defs
     id="defs21"><style
       id="style2">.cls-1{fill:url(#linear-gradient);}.cls-2{fill:url(#linear-gradient-2);}.cls-3{fill:url(#linear-gradient-3);}.cls-4{fill:url(#linear-gradient-4);}.cls-5{fill:url(#linear-gradient-5);}.cls-6{fill:url(#linear-gradient-6);}.cls-7{fill:url(#linear-gradient-7);}.cls-8{fill:url(#linear-gradient-8);}.cls-9{fill:url(#linear-gradient-9);}.cls-10{fill:url(#linear-gradient-10);}.cls-11{fill:url(#linear-gradient-11);}.cls-12{font-size:596.56px;fill:#806c76;font-family:Roboto-Black, Roboto;font-weight:800;letter-spacing:0.15em;}</style><linearGradient
       id="linear-gradient"
       x1="632.07001"
       y1="131.3"
       x2="655.90997"
       y2="131.3"
       gradientUnits="userSpaceOnUse"><stop
         offset="0"
         stop-color="#7c7474"
         id="stop4" /><stop
         offset="0.24"
         stop-color="#7d7175"
         id="stop6" /><stop
         offset="1"
         stop-color="#806c76"
         id="stop8" /></linearGradient><linearGradient
       id="linear-gradient-2"
       x1="689.97998"
       y1="196.82001"
       x2="713.81"
       y2="196.82001"
       xlink:href="#linear-gradient"
       gradientTransform="translate(-287.17797,19.516945)" /><linearGradient
       id="linear-gradient-3"
       x1="832.46997"
       y1="78.730003"
       x2="856.29999"
       y2="78.730003"
       xlink:href="#linear-gradient"
       gradientTransform="translate(-287.17797,19.516945)" /><linearGradient
       id="linear-gradient-4"
       x1="818.40002"
       y1="252.36"
       x2="848.84003"
       y2="252.36"
       xlink:href="#linear-gradient"
       gradientTransform="translate(-287.17797,19.516945)" /><linearGradient
       id="linear-gradient-5"
       x1="881.22998"
       y1="156.44"
       x2="905.06"
       y2="156.44"
       xlink:href="#linear-gradient"
       gradientTransform="translate(-287.17797,19.516945)" /><linearGradient
       id="linear-gradient-6"
       x1="763.13"
       y1="285.22"
       x2="786.96002"
       y2="285.22"
       xlink:href="#linear-gradient"
       gradientTransform="translate(-287.17797,19.516945)" /><linearGradient
       id="linear-gradient-7"
       x1="898"
       y1="287.5"
       x2="921.83002"
       y2="287.5"
       xlink:href="#linear-gradient"
       gradientTransform="translate(-287.17797,19.516945)" /><linearGradient
       id="linear-gradient-8"
       x1="726.56"
       y1="58.150002"
       x2="750.39001"
       y2="58.150002"
       xlink:href="#linear-gradient"
       gradientTransform="translate(-287.17797,19.516945)" /><linearGradient
       id="linear-gradient-9"
       x1="773.03998"
       y1="388.07999"
       x2="796.85999"
       y2="388.07999"
       xlink:href="#linear-gradient"
       gradientTransform="translate(-287.17797,19.516945)" /><linearGradient
       id="linear-gradient-10"
       x1="344.76999"
       y1="229.75999"
       x2="973.20001"
       y2="229.75999"
       xlink:href="#linear-gradient"
       gradientTransform="translate(-505.13091,-721.99697)" /><linearGradient
       id="linear-gradient-11"
       x1="713.59998"
       y1="353.03"
       x2="737.42999"
       y2="353.03"
       xlink:href="#linear-gradient"
       gradientTransform="translate(-287.17797,19.516945)" /></defs><g
     id="Layer_1"
     data-name="Layer 1"
     transform="translate(-76.705539,635.55693)"
     style="fill:#000000;stroke:#000000;stroke-opacity:1"><text
       class="cls-12"
       id="text45"
       x="65.252274"
       y="219.14851"
       style="font-weight:800;font-size:1208.69px;font-family:Roboto-Black, Roboto;letter-spacing:0.15em;fill:#ffffff;stroke:#ffffff;stroke-width:42.5849;stroke-miterlimit:4;stroke-dasharray:none;stroke-opacity:1"
       transform="scale(1.0736418,0.93140933)">#</text><text
       xml:space="preserve"
       style="font-style:normal;font-variant:normal;font-weight:normal;font-stretch:normal;font-size:858.296px;line-height:1;font-family:'Roboto Slab';-inkscape-font-specification:'Roboto Slab';letter-spacing:0px;word-spacing:0px;fill:#ffffff;fill-opacity:1;stroke:#ffffff;stroke-width:55.1258;stroke-miterlimit:4;stroke-dasharray:none;stroke-opacity:1"
       x="1146.5836"
       y="159.10358"
       id="text866"
       transform="scale(1.0734266,0.93159606)"><tspan
         sodipodi:role="line"
         x="1146.5836"
         y="159.10358"
         id="tspan868"
         style="font-style:normal;font-variant:normal;font-weight:normal;font-stretch:normal;font-family:Roboto-Black, Roboto;-inkscape-font-specification:'Roboto-Black, Roboto';text-align:center;text-anchor:middle;fill:#ffffff;stroke:#ffffff;stroke-width:55.1258;stroke-miterlimit:4;stroke-dasharray:none;stroke-opacity:1">30</tspan></text><text
       transform="scale(1.2806933,0.78082706)"
       xml:space="preserve"
       style="font-style:normal;font-variant:normal;font-weight:normal;font-stretch:normal;font-size:149.188px;line-height:0;font-family:'Roboto Slab';-inkscape-font-specification:'Roboto Slab';letter-spacing:0px;word-spacing:0px;fill:#ffffff;fill-opacity:1;stroke:#ffffff;stroke-width:7.54187;stroke-miterlimit:4;stroke-dasharray:none;stroke-opacity:1"
       x="487.70227"
       y="38.402386"
       id="text852"><tspan
         sodipodi:role="line"
         id="tspan850"
         x="487.70227"
         y="38.402386"
         style="font-weight:bold;font-size:119.35px;fill:#ffffff;stroke:#ffffff;stroke-width:7.54187;stroke-miterlimit:4;stroke-dasharray:none;stroke-opacity:1">1</tspan></text><path
       style="fill:#ffffff;stroke:#ffffff;stroke-width:3.13102;stroke-opacity:1"
       d="m 1959.6492,218.96846 c -7.9044,-2.29488 -16.9917,-3.85441 -20.1932,-3.46562 -4.324,0.52526 -5.6373,-1.13877 -5.1072,-6.47201 0.5844,-5.87926 -0.9413,-7.34354 -8.4264,-8.08757 -5.0269,-0.49968 -11.7558,-3.06608 -14.9529,-5.70313 -5.6081,-4.6254 -5.563,-5.33299 1.2688,-20.04742 3.8945,-8.38909 6.3834,-16.03273 5.5314,-16.98582 -0.8525,-0.95306 -7.9912,0.64035 -15.8644,3.54097 -7.8732,2.90064 -15.0772,5.19435 -16.0091,5.09711 -0.9314,-0.0976 -4.5858,-6.3471 -8.1206,-13.88862 l -6.4259,-13.71179 17.7673,-28.09333 c 9.7716,-15.451359 16.5124,-28.656582 14.9796,-29.344966 -1.5335,-0.688383 -8.1505,1.756382 -14.7048,5.432807 l -11.9172,6.68443 -6.206,-11.523492 c -7.7003,-14.296254 -8.4152,-34.124429 -1.7364,-48.144125 3.2047,-6.725939 17.6015,-20.442381 39.0611,-37.215095 18.6919,-14.609749 33.114,-27.537252 32.0491,-28.727876 -1.0649,-1.190614 -6.2927,0.9111 -11.6175,4.670428 -19.845,14.009877 -61.0148,32.5685912 -64.243,28.9594292 -1.7116,-1.91376701 -4.899,-10.7014742 -7.0826,-19.5281482 l -3.971,-16.048554 15.2386,-14.880615 c 24.8776,-24.29328 48.3569,-42.522141 73.0569,-56.718953 32.5888,-18.73114 32.2949,-18.39607 15.9203,-18.14634 -9.1415,0.13948 -24.584,4.64399 -42.3024,12.33967 -54.3577,23.609211 -57.9257,24.014572 -63.6473,7.23081 -2.1713,-6.36911 -6.1028,-14.24637 -8.737,-17.50509 -4.4852,-5.54838 -4.0142,-6.52833 7.4083,-15.41763 20.6366,-16.0595 56.2548,-36.49888 88.6364,-50.86345 44.1286,-19.57557 43.328,-19.05411 28.2685,-18.41544 -16.9477,0.71884 -35.7739,7.46409 -81.0339,29.03432 -44.3498,21.1362 -61.5246,27.44248 -71.9247,26.4087 -5.2143,-0.51831 -12.7983,-6.69532 -22.9208,-18.66845 -8.3206,-9.84163 -15.0056,-19.13306 -14.855,-20.64755 0.5047,-5.07787 58.2804,-41.8773 120.9953,-77.06635 37.8305,-21.22643 34.6832,-19.12819 32.4444,-21.63142 -2.1415,-2.3943 -12.7354,0.18609 -72.0977,17.55993 -45.3696,13.27859 -75.3389,24.834 -97.9401,37.76297 -10.8541,6.20926 -13.8802,6.82766 -15.6314,3.19476 -1.1941,-2.47765 -6.1768,-10.17354 -11.0727,-17.10194 -4.8959,-6.92842 -8.5872,-15.42992 -8.2035,-18.89226 2.134,-19.24418 34.8696,-47.85097 83.5905,-73.04573 12.8608,-6.65065 23.4379,-12.6455 23.5052,-13.32192 0.4443,-4.47001 -15.1032,-0.9243 -33.483,7.63616 -11.8793,5.53263 -23.9424,9.40109 -26.8062,8.59659 -6.7313,-1.89082 -12.8822,-17.19193 -9.6909,-24.10763 1.3605,-2.94776 9.9158,-10.85359 19.0124,-17.56853 9.0966,-6.71494 15.5458,-13.31959 14.3319,-14.67703 -1.2141,-1.35746 -3.3674,-1.14506 -4.7856,0.47193 -6.1942,7.06366 -34.1493,18.96154 -50.9968,21.70464 -30.2276,4.92147 -49.0247,-6.83818 -43.6306,-27.29553 1.9741,-7.48659 1.249,-8.56828 -6.2404,-9.31275 -11.9757,-1.1904 -22.1508,-10.20276 -21.2905,-18.85752 0.6917,-6.95866 -0.205,-7.38159 -19.7751,-9.32688 -23.717,-2.35751 -30.754,-7.19654 -21.5615,-14.82708 4.0642,-3.37395 4.9932,-6.01888 2.9255,-8.3307 -2.0674,-2.31182 -7.7502,-0.46274 -17.8999,5.82392 -8.1788,5.06613 -15.8292,9.10543 -17.0007,8.97623 -1.1717,-0.12873 -4.943,-5.94084 -8.3804,-12.91466 -5.5972,-11.35396 -7.1976,-12.53883 -15.3044,-11.33149 -20.3278,3.0274 -44.7037,-4.91276 -51.0956,-16.64373 -4.7206,-8.66384 2.1912,-16.64847 25.4326,-29.38033 22.7465,-12.46049 18.0947,-16.77502 -10.2118,-9.47232 -12.283,3.16887 -25.5603,5.00778 -29.5048,4.08656 -7.8849,-1.84138 -21.5478,-26.39985 -17.4423,-31.35152 1.3177,-1.58985 12.8885,-6.52532 25.7127,-10.9677 22.3921,-7.75685 32.0967,-13.37997 24.4104,-14.144 -2,-0.1988 -14.1472,0.0827 -26.9943,0.62549 -30.8197,1.30227 -39.7694,-2.93618 -36.4762,-17.27498 2.1032,-9.1614 1.3987,-10.31607 -8.8843,-14.55523 -6.1429,-2.53243 -12.93,-5.48222 -15.0828,-6.55516 -5.8869,-2.93439 -5.5409,6.02802 0.6863,17.76583 3.0387,5.72751 5.1673,14.06521 4.7306,18.52825 -0.8179,8.22911 5.3649,23.47525 16.2068,40.0397 3.2832,5.01582 5.2651,10.58567 4.4045,12.37754 -2.178,4.53391 -26.8407,-22.60959 -26.2551,-28.89605 0.2475,-2.8137 -2.3451,-12.36869 -5.7931,-21.23649 -4.1383,-10.64398 -5.0738,-17.01854 -2.7526,-18.75753 4.3341,-3.2469 -2.3393,-19.97478 -13.1038,-32.84696 l -7.5565,-9.03636 7.9407,0.78932 c 13.3339,1.32542 51.3281,16.65228 57.9516,23.37761 5.0578,5.13529 13.0869,7.334 42.3081,11.58551 29.7713,4.33154 38.735,6.82588 51.3629,14.29276 21.4395,12.67727 23.2988,15.94611 17.7836,31.27004 -5.4894,15.25313 -8.2541,37.92817 -4.6687,38.28456 5.3108,0.52791 16.9016,37.46731 14.072,44.8445 -2.6868,7.00564 -2.4112,7.18576 8.3777,5.46622 6.1365,-0.97795 11.8258,-1.71162 12.6427,-1.63041 0.8173,0.0812 12.7976,-8.77204 26.6227,-19.67399 19.2805,-15.20347 27.842,-19.96868 36.7467,-20.45271 11.0807,-0.60244 11.8172,-0.0459 16.1935,12.23442 4.2752,11.99542 4.1834,13.19916 -1.3566,17.79813 -5.5565,4.61233 -5.5541,5.48802 0.039,13.48946 4.816,6.8907 5.343,11.08076 2.706,21.51868 -3.1152,12.32881 -2.8251,13.15665 5.9451,16.95205 5.7541,2.49009 10.2628,7.46384 11.9928,13.22996 1.5248,5.08187 5.0327,9.46442 7.7954,9.73904 2.7629,0.27463 29.7355,-7.89035 59.9395,-18.14434 30.2042,-10.25401 56.8148,-18.45497 59.1352,-18.22431 2.3206,0.23067 6.7043,5.27914 9.7421,11.2189 l 5.5229,10.79947 -8.8887,9.79575 c -15.8044,17.41681 -13.4766,18.81233 21.9921,13.18501 12.8426,-2.03753 25.8797,-3.45314 28.9715,-3.1458 7.6598,0.76139 14.033,16.1901 9.8969,23.95948 -4.6021,8.64484 -26.0629,23.55592 -49.6623,34.50615 -11.1242,5.16167 -20.3528,10.53598 -20.5085,11.94297 -0.458,4.14235 13.9681,1.16459 53.6127,-11.06606 34.0056,-10.49103 40.2126,-11.4178 70.7081,-10.55835 18.3862,0.51815 35.6531,1.71768 38.3704,2.66553 2.7172,0.94782 8.9448,10.14715 13.8394,20.44292 l 8.8993,18.71962 -11.6003,16.03847 c -7.7187,10.67127 -10.6128,17.14286 -8.649,19.33872 3.3766,3.77593 35.6093,-2.54854 79.8056,-15.65906 17.1594,-5.09021 33.8002,-7.93043 42.9859,-7.33663 13.3139,0.86069 15.8886,2.17981 23.0523,11.80971 4.4357,5.9625 8.5857,15.18747 9.2225,20.49997 1.2177,10.16684 -0.2294,11.64999 -25.4108,26.03888 l -10.3896,5.93679 14.7908,-0.0347 c 8.1353,-0.0191 17.9338,-0.58744 21.775,-1.26297 6.0229,-1.05921 8.1639,1.71445 15.555,20.15475 5.8978,14.71397 7.5199,22.69711 5.2009,25.59648 -1.8541,2.31739 -19.1776,11.79467 -38.4964,21.0606 l -35.1256,16.84712 10.9926,11.27018 c 25.18,25.81531 4.0257,49.500206 -85.108,95.291481 -21.5205,11.055917 -44.3678,24.586575 -50.7719,30.068202 -12.571,10.76020519 -13.011,14.6862592 -3.7422,33.413371 l 4.9953,10.093997 -28.8617,34.232067 c -35.1509,41.691912 -35.7127,42.687042 -28.5911,50.650032 5.7332,6.41014 8.0511,28.40768 5.8753,55.74495 -0.9093,11.42942 -0.021,14.30707 4.5635,14.76444 3.1319,0.31231 5.4944,2.58191 5.2497,5.04315 -0.2446,2.46126 -1.9094,4.32941 -3.6992,4.15151 -8.8718,-0.88188 -2.0314,5.89997 11.7353,11.63431 16.8198,7.00605 27.396,16.62545 16.4226,14.93693 -3.3333,-0.51301 -12.5281,-2.81016 -20.4335,-5.10514 z m -116.9093,-700.15041 c -2.1658,-1.05452 -2.9876,-3.06283 -1.827,-4.46297 3.2786,-3.95449 13.5525,-1.90083 17.5512,3.5083 3.0374,4.10859 2.3925,4.71955 -4.0906,3.87477 -4.2329,-0.55139 -9.4681,-1.86563 -11.6336,-2.9201 z m -50.7721,-9.69221 c -5.1983,-2.25386 -12.3979,-7.09485 -15.9991,-10.7578 -5.0715,-5.15843 -9.1431,-6.4747 -18.0582,-5.83832 -6.451,0.46044 -12.2494,-0.55035 -13.1916,-2.29955 -2.1463,-3.98474 9.3843,-8.34924 19.4216,-7.35151 8.4977,0.84468 34.1482,15.13595 45.9642,25.60885 l 7.5499,6.69179 -8.1179,-0.97782 c -4.4648,-0.53777 -12.3706,-2.8218 -17.5689,-5.07566 z"
       id="path522"
       sodipodi:nodetypes="sssssssscscssscsssscsscsssssssssssssssssssssssssssssssssssscsssssssssssssscsscssscssssssssssssssssssssscsssssssssscssssssscssssscsssscsssssssssssssssssssscsss" /></g></svg>
