<?xml version="1.0" encoding="utf-8"?>
<!-- Generator: Adobe Illustrator 19.2.1, SVG Export Plug-In . SVG Version: 6.00 Build 0)  -->
<svg version="1.1" id="layer" xmlns="http://www.w3.org/2000/svg" xmlns:xlink="http://www.w3.org/1999/xlink" x="0px" y="0px"
	 viewBox="0 0 652 652" style="enable-background:new 0 0 652 652;" xml:space="preserve">
<style type="text/css">
	.st0{fill:#DF271C;}
</style>
<polygon class="st0" points="96.5,207.3 96.5,283.5 20.3,283.5 20.3,359.7 96.5,359.7 96.5,435.9 172.7,435.9 172.7,359.7 
	248.9,359.7 248.9,283.5 172.7,283.5 172.7,207.3 "/>
<g>
	<path d="M351.6,262.7c-4.7,6-10.8,8.3-16.7,8.3c-18.8,0-29.9-14-29.9-31.6c0-18,11.1-32.1,29.9-32.1c12.4,0,24.2,7.7,25.6,21.5
		h-12.8c-1.5-6.7-6.6-10.2-12.9-10.2c-12,0-16.5,10.2-16.5,20.9c0,10.1,4.5,20.4,16.5,20.4c8.7,0,13.7-4.7,14.5-13.1H336v-10h25.5
		v32.9H353L351.6,262.7"/>
	<path d="M400.7,242.9c-1.1-6.1-3.7-9.4-9.6-9.4c-7.7,0-9.9,6-10,9.4H400.7 M381,250.6c0.3,7.7,4.1,11.2,10.8,11.2
		c4.8,0,8.8-3,9.5-5.7H412c-3.4,10.4-10.6,14.8-20.6,14.8c-13.9,0-22.5-9.5-22.5-23.2c0-13.2,9.1-23.2,22.5-23.2
		c15,0,22.2,12.6,21.4,26.1H381z"/>
	<path d="M419.9,225.6h11.5v8.2h0.2c2.2-5.5,8.2-9.4,14-9.4c0.9,0,1.9,0.2,2.6,0.4v11.2c-1.1-0.3-2.9-0.4-4.3-0.4
		c-8.9,0-11.9,6.4-11.9,14.1v19.8h-12.1V225.6"/>
	<path d="M453.4,225.6h11.4v6h0.2c3.1-4.5,7.7-7.1,13.4-7.1c5.5,0,10.5,2,12.9,7.3c2.6-3.8,7.1-7.3,13.3-7.3
		c9.4,0,16.1,4.3,16.1,15.7v29.5h-12.1v-24.9c0-5.9-0.5-10.7-7.4-10.7c-6.8,0-8.1,5.6-8.1,11.2v24.5h-12.1v-24.7
		c0-5.1,0.3-11-7.3-11c-2.4,0-8.2,1.5-8.2,10.1v25.5h-12.1V225.6"/>
	<path d="M557.6,248.1c-2,1.8-6.3,1.9-10,2.6c-3.8,0.8-7.2,2-7.2,6.5c0,4.5,3.5,5.6,7.4,5.6c9.4,0,9.8-7.5,9.8-10.1V248.1
		 M529.6,239.2c0.7-11.3,10.8-14.7,20.7-14.7c8.8,0,19.3,2,19.3,12.5v22.9c0,4,0.4,8,1.5,9.8h-12.3c-0.4-1.4-0.8-2.8-0.9-4.3
		c-3.8,4-9.4,5.4-14.8,5.4c-8.3,0-15-4.2-15-13.2c0-10,7.5-12.3,15-13.4c7.4-1.1,14.3-0.8,14.3-5.8c0-5.2-3.6-6-7.8-6
		c-4.6,0-7.6,1.9-8,6.6H529.6z"/>
	<path d="M579,225.6h11.5v6.1h0.3c3.1-4.9,8.3-7.3,13.4-7.3c12.9,0,16.1,7.2,16.1,18.1v27.1h-12.1v-24.9c0-7.2-2.1-10.8-7.7-10.8
		c-6.6,0-9.4,3.7-9.4,12.6v23.1H579V225.6"/>
	<path d="M321.1,318.9h14.6c6,0,9.2-2.6,9.2-8.7c0-5.9-3.2-8.4-9.2-8.4h-14.6V318.9 M307.7,291.4h32.8c10.9,0,17.8,7.6,17.8,16.8
		c0,7.2-2.9,12.5-9.6,15.2v0.2c6.5,1.7,8.4,8.1,8.9,14.2c0.3,3.8,0.2,11,2.6,14.4h-13.4c-1.6-3.8-1.4-9.7-2.1-14.6
		c-0.9-6.4-3.4-9.2-10.1-9.2h-13.4v23.8h-13.4V291.4z"/>
	<path d="M397.5,325.5c-1.1-6.1-3.7-9.4-9.6-9.4c-7.7,0-9.9,6-10,9.4H397.5 M377.8,333.1c0.3,7.7,4.1,11.2,10.8,11.2
		c4.9,0,8.8-3,9.5-5.7h10.6c-3.4,10.4-10.6,14.8-20.6,14.8c-13.9,0-22.5-9.5-22.5-23.2c0-13.2,9.1-23.2,22.5-23.2
		c15,0,22.2,12.6,21.4,26.1H377.8z"/>
	<path d="M437.6,316.1c-7.9,0-10.6,6.8-10.6,14c0,6.9,3.1,14.1,10.6,14.1c8,0,10.4-7,10.4-14.2C448,322.9,445.4,316.1,437.6,316.1
		 M448.2,346.6H448c-2.8,4.8-7.7,6.8-13.4,6.8c-13.3,0-19.8-11.4-19.8-23.6c0-11.8,6.6-22.8,19.5-22.8c5.2,0,10.3,2.2,13.1,6.6h-0.1
		h0.2v-22.1h12.1v60.8h-11.5V346.6z"/>
	<path d="M348.2,394.4c-0.9-6-6.6-10.6-13.3-10.6c-12,0-16.5,10.2-16.5,20.9c0,10.1,4.5,20.4,16.5,20.4c8.2,0,12.8-5.6,13.8-13.6
		h12.9c-1.4,15.1-11.8,24.9-26.7,24.9c-18.8,0-29.9-14-29.9-31.6c0-18.1,11.1-32.1,29.9-32.1c13.4,0,24.6,7.8,26.2,21.9H348.2"/>
	<path d="M369.5,390.7H381v8.2h0.2c2.2-5.5,8.2-9.4,14-9.4c0.9,0,1.9,0.2,2.6,0.4v11.2c-1.1-0.3-2.9-0.4-4.3-0.4
		c-8.8,0-11.9,6.4-11.9,14.1v19.8h-12.1V390.7"/>
	<path d="M422.5,426.8c8.3,0,10.7-7.1,10.7-14c0-7.1-2.5-14.1-10.7-14.1c-8.2,0-10.6,7.1-10.6,14.1
		C411.8,419.8,414.3,426.8,422.5,426.8 M422.5,389.5c13.9,0,22.8,9.2,22.8,23.2c0,14-8.9,23.2-22.8,23.2c-13.8,0-22.7-9.2-22.7-23.2
		C399.7,398.7,408.7,389.5,422.5,389.5"/>
	<path d="M462.5,420.5c0.1,5.3,4.5,7.4,9.3,7.4c3.5,0,7.9-1.4,7.9-5.6c0-3.7-5-4.9-13.7-6.8c-7-1.5-14-4-14-11.7
		c0-11.2,9.7-14.1,19.2-14.1c9.6,0,18.5,3.2,19.4,14h-11.5c-0.3-4.7-3.9-6-8.3-6c-2.7,0-6.7,0.5-6.7,4.1c0,4.3,6.8,4.9,13.7,6.6
		c7.1,1.6,14,4.2,14,12.3c0,11.6-10,15.3-20.1,15.3c-10.2,0-20.2-3.8-20.7-15.5H462.5"/>
	<path d="M508.2,420.5c0.1,5.3,4.5,7.4,9.3,7.4c3.5,0,7.9-1.4,7.9-5.6c0-3.7-5-4.9-13.7-6.8c-7-1.5-14-4-14-11.7
		c0-11.2,9.7-14.1,19.1-14.1c9.6,0,18.5,3.2,19.4,14h-11.5c-0.3-4.7-3.9-6-8.3-6c-2.7,0-6.7,0.5-6.7,4.1c0,4.3,6.8,4.9,13.7,6.6
		c7.1,1.6,14,4.2,14,12.3c0,11.6-10,15.3-20.1,15.3c-10.2,0-20.2-3.8-20.7-15.5H508.2"/>
</g>
</svg>
