<svg width="196" height="184" viewBox="0 0 196 184" fill="none" xmlns="http://www.w3.org/2000/svg">
<path d="M27.7056 154.178C27.4343 154.178 27.2173 154.071 27.0545 153.909C26.8917 153.802 26.7832 153.586 26.7832 153.318V128.898C26.7832 128.629 26.8917 128.414 27.0545 128.199C27.2173 128.037 27.4343 127.93 27.7056 127.93H31.124C31.3953 127.93 31.6124 128.037 31.7752 128.199C31.9379 128.36 32.0465 128.575 32.0465 128.898V138.58H43.1698V128.898C43.1698 128.629 43.2784 128.414 43.4412 128.199C43.6039 128.037 43.821 127.93 44.0923 127.93H47.5107C47.782 127.93 47.999 128.037 48.2161 128.199C48.3788 128.36 48.4874 128.575 48.4874 128.898V153.264C48.4874 153.533 48.3788 153.748 48.2161 153.909C48.0533 154.071 47.8362 154.178 47.5107 154.178H44.0923C43.821 154.178 43.6039 154.071 43.4412 153.909C43.2784 153.748 43.1698 153.533 43.1698 153.264V143.259H32.0465V153.318C32.0465 153.586 31.9379 153.802 31.7752 153.963C31.6124 154.124 31.3953 154.232 31.124 154.232H27.7056V154.178Z" fill="#043C4E"/>
<path d="M62.3241 154.555C59.5025 154.555 57.3321 153.748 55.65 152.134C54.0222 150.521 53.1541 148.262 52.9913 145.303C52.9913 145.034 52.937 144.712 52.937 144.335C52.937 143.959 52.937 143.636 52.9913 143.421C53.0998 141.538 53.5339 139.925 54.2935 138.526C55.0532 137.128 56.1384 136.106 57.4949 135.353C58.8514 134.6 60.4792 134.223 62.2698 134.223C64.3317 134.223 66.0138 134.653 67.4245 135.46C68.8353 136.321 69.8663 137.45 70.5716 138.956C71.277 140.463 71.6569 142.184 71.6569 144.12V144.927C71.6569 145.196 71.5483 145.411 71.3855 145.572C71.2228 145.734 71.0057 145.841 70.6802 145.841H58.2003C58.2003 146.003 58.2003 146.11 58.2003 146.164C58.2003 147.025 58.4173 147.831 58.6886 148.584C59.0142 149.338 59.4483 149.929 60.0994 150.359C60.6963 150.79 61.4559 151.059 62.3241 151.059C63.0294 151.059 63.6263 150.951 64.1147 150.736C64.603 150.521 64.9828 150.306 65.3084 149.983C65.6339 149.714 65.851 149.499 65.9595 149.284C66.1765 148.961 66.3936 148.8 66.5021 148.746C66.6649 148.692 66.8277 148.638 67.099 148.638H70.3546C70.6259 148.638 70.7887 148.692 70.9515 148.853C71.1142 149.015 71.1685 149.176 71.1685 149.391C71.1685 149.768 70.9515 150.252 70.5716 150.844C70.1918 151.435 69.595 151.973 68.8896 152.511C68.1842 153.049 67.2618 153.533 66.1765 153.856C64.9828 154.394 63.7348 154.555 62.3241 154.555ZM58.2003 142.775H66.5564V142.668C66.5564 141.7 66.3936 140.839 66.068 140.14C65.7425 139.441 65.2541 138.849 64.6573 138.419C64.0061 137.988 63.2465 137.773 62.3783 137.773C61.5102 137.773 60.7505 137.988 60.0994 138.419C59.4483 138.849 59.0142 139.441 58.6886 140.14C58.3631 140.839 58.2003 141.7 58.2003 142.668V142.775Z" fill="#043C4E"/>
<path d="M75.8892 134.707V128.521C75.8892 128.252 75.9434 128.037 76.1605 127.876C76.3232 127.715 76.5403 127.607 76.8116 127.607H79.8502C80.1215 127.607 80.3385 127.715 80.5013 127.876C80.6641 128.037 80.7726 128.252 80.7726 128.521V134.761V138.741V146.863C80.7726 147.885 80.9354 148.692 81.3152 149.283C81.695 149.875 82.2919 150.144 83.2143 150.144H83.1058C83.3771 150.144 83.5941 150.252 83.7569 150.413C83.9197 150.574 84.0282 150.789 84.0282 151.058V153.371C84.0282 153.64 83.9197 153.855 83.7569 154.017C83.5941 154.178 83.3771 154.286 83.1058 154.286H82.7802C81.2609 154.286 80.0129 154.017 78.982 153.479C77.9511 152.941 77.1914 152.188 76.7031 151.112C76.2147 150.09 75.9434 148.799 75.9434 147.239V138.687V134.707H75.8892Z" fill="#043C4E"/>
<path d="M88.9112 161.332C88.6399 161.332 88.4229 161.224 88.2601 161.063C88.0973 160.902 87.9888 160.687 87.9888 160.418V135.621C87.9888 135.353 88.0973 135.137 88.2601 134.976C88.4229 134.815 88.6399 134.707 88.9112 134.707H91.8955C92.1668 134.707 92.3839 134.815 92.5466 134.976C92.7094 135.137 92.8179 135.353 92.8179 135.621V137.128C93.4148 136.321 94.2287 135.675 95.2054 135.137C96.1821 134.6 97.4301 134.331 98.8951 134.331C100.252 134.331 101.391 134.546 102.368 134.976C103.344 135.406 104.158 135.998 104.81 136.805C105.461 137.612 105.949 138.526 106.329 139.602C106.709 140.678 106.871 141.861 106.926 143.152C106.926 143.582 106.98 144.012 106.98 144.443C106.98 144.873 106.98 145.357 106.926 145.787C106.926 147.024 106.709 148.208 106.383 149.23C106.003 150.306 105.515 151.22 104.864 152.027C104.213 152.834 103.344 153.425 102.368 153.856C101.391 154.286 100.252 154.555 98.8951 154.555C97.5386 154.555 96.3991 154.286 95.4224 153.802C94.4458 153.318 93.6861 152.672 93.0892 151.865V160.418C93.0892 160.687 92.9807 160.902 92.8179 161.063C92.6552 161.224 92.4381 161.332 92.1668 161.332H88.9112ZM97.4301 150.574C98.5153 150.574 99.3835 150.359 99.9803 149.875C100.577 149.391 101.011 148.799 101.283 148.046C101.554 147.293 101.717 146.487 101.771 145.572C101.825 144.819 101.825 144.066 101.771 143.313C101.717 142.399 101.554 141.592 101.283 140.839C101.011 140.086 100.577 139.494 99.9803 139.01C99.3835 138.526 98.5153 138.311 97.4301 138.311C96.3991 138.311 95.5852 138.526 94.9341 139.01C94.283 139.494 93.8489 140.086 93.5233 140.839C93.252 141.592 93.0892 142.345 93.035 143.098C93.035 143.528 92.9807 144.012 92.9807 144.496C92.9807 144.981 92.9807 145.465 93.035 145.949C93.035 146.702 93.252 147.401 93.5776 148.1C93.9032 148.799 94.3915 149.337 94.9884 149.821C95.5852 150.359 96.3991 150.574 97.4301 150.574Z" fill="#043C4E"/>
<path d="M121.848 154.555C119.515 154.555 117.562 154.178 115.934 153.371C114.306 152.564 113.058 151.435 112.136 149.929C111.267 148.423 110.779 146.594 110.67 144.496C110.67 143.42 110.616 142.291 110.616 141.054C110.616 139.817 110.616 138.633 110.67 137.558C110.725 135.46 111.213 133.739 112.136 132.233C113.004 130.78 114.306 129.597 115.934 128.844C117.562 128.037 119.569 127.661 121.794 127.661C123.639 127.661 125.267 127.93 126.623 128.414C128.034 128.898 129.173 129.543 130.096 130.296C131.018 131.049 131.724 131.856 132.158 132.77C132.646 133.631 132.863 134.438 132.917 135.191C132.917 135.406 132.863 135.621 132.754 135.729C132.592 135.89 132.375 135.944 132.158 135.944H128.251C127.98 135.944 127.817 135.89 127.708 135.783C127.6 135.675 127.491 135.514 127.383 135.352C127.166 134.814 126.84 134.33 126.46 133.792C126.026 133.255 125.429 132.824 124.724 132.502C124.019 132.179 123.042 131.964 121.902 131.964C120.166 131.964 118.81 132.394 117.779 133.308C116.748 134.223 116.205 135.675 116.151 137.773C116.097 139.924 116.097 142.13 116.151 144.389C116.205 146.486 116.802 148.046 117.833 148.961C118.864 149.875 120.275 150.359 121.957 150.359C123.096 150.359 124.127 150.144 124.995 149.767C125.863 149.391 126.569 148.745 127.111 147.885C127.654 147.024 127.871 145.948 127.871 144.604V143.42H123.259C122.988 143.42 122.771 143.313 122.608 143.152C122.445 142.99 122.336 142.775 122.336 142.452V140.462C122.336 140.193 122.445 139.978 122.608 139.763C122.771 139.602 122.988 139.494 123.259 139.494H132.266C132.537 139.494 132.754 139.602 132.917 139.763C133.08 139.924 133.189 140.139 133.189 140.462V144.389C133.189 146.486 132.754 148.315 131.832 149.821C130.91 151.327 129.607 152.511 127.925 153.317C126.189 154.178 124.181 154.555 121.848 154.555Z" fill="#043C4E"/>
<path d="M138.94 154.178C138.668 154.178 138.451 154.07 138.288 153.909C138.126 153.747 138.017 153.532 138.017 153.263V128.897C138.017 128.628 138.126 128.413 138.288 128.252C138.451 128.09 138.668 127.983 138.94 127.983H142.466C142.738 127.983 142.955 128.09 143.118 128.252C143.28 128.413 143.389 128.628 143.389 128.897V153.317C143.389 153.586 143.28 153.801 143.118 153.962C142.955 154.124 142.738 154.231 142.466 154.231H138.94V154.178Z" fill="#043C4E"/>
<path d="M158.528 154.555C156.195 154.555 154.241 154.232 152.668 153.533C151.094 152.833 149.9 151.973 149.086 150.843C148.273 149.714 147.838 148.584 147.784 147.347C147.784 147.132 147.838 146.917 148.001 146.809C148.164 146.648 148.327 146.594 148.544 146.594H151.908C152.234 146.594 152.505 146.648 152.668 146.809C152.83 146.97 152.993 147.132 153.102 147.293C153.264 147.777 153.536 148.261 153.97 148.692C154.404 149.176 155.001 149.552 155.706 149.821C156.466 150.144 157.388 150.252 158.528 150.252C160.318 150.252 161.675 149.929 162.597 149.337C163.465 148.745 163.954 147.939 163.954 146.917C163.954 146.217 163.737 145.626 163.248 145.195C162.76 144.765 162.055 144.335 161.024 144.012C160.047 143.636 158.691 143.259 157.063 142.883C155.164 142.452 153.59 141.914 152.342 141.269C151.094 140.623 150.117 139.817 149.466 138.849C148.815 137.88 148.49 136.643 148.49 135.137C148.49 133.685 148.869 132.394 149.683 131.264C150.497 130.135 151.637 129.274 153.102 128.629C154.567 127.983 156.357 127.661 158.365 127.661C159.993 127.661 161.458 127.876 162.706 128.306C163.954 128.736 164.985 129.328 165.853 130.027C166.667 130.727 167.318 131.48 167.752 132.286C168.186 133.093 168.403 133.9 168.457 134.653C168.457 134.868 168.403 135.03 168.24 135.191C168.078 135.352 167.915 135.46 167.643 135.46H164.117C163.9 135.46 163.737 135.406 163.52 135.299C163.303 135.191 163.14 135.03 163.031 134.761C162.869 134.008 162.38 133.308 161.566 132.77C160.752 132.233 159.667 131.964 158.365 131.964C157.008 131.964 155.923 132.233 155.055 132.717C154.241 133.201 153.807 134.008 153.807 135.03C153.807 135.729 154.024 136.32 154.404 136.751C154.838 137.235 155.489 137.611 156.412 137.988C157.334 138.364 158.528 138.687 160.047 139.117C162.163 139.602 163.954 140.139 165.31 140.785C166.667 141.43 167.643 142.183 168.295 143.152C168.946 144.12 169.217 145.357 169.217 146.809C169.217 148.477 168.783 149.875 167.861 151.005C166.992 152.188 165.69 153.048 164.117 153.694C162.543 154.286 160.644 154.555 158.528 154.555Z" fill="#043C4E"/>
<path d="M58.652 47.7256C65.4969 48.5127 72.2391 50.2924 78.6391 53.133L81.6166 54.502C87.1609 57.3084 92.4657 60.902 97.2571 65.2827C108.38 75.4816 115.396 88.4869 118.168 102.211C113 104.983 107.353 106.626 101.638 107.105L99.7213 107.242C88.3588 107.687 76.7909 103.648 67.9953 94.9895C55.1611 82.4634 51.944 63.4688 58.652 47.7256Z" fill="#0086F8"/>
<path d="M69.8102 32.3246C81.0016 22.5022 96.2657 19.4904 109.955 23.4947C111.735 24.0081 113.515 24.6583 115.26 25.4113L117.108 26.2669C119.812 27.6016 122.379 29.2786 124.809 31.2294C125.493 31.777 126.178 32.3588 126.862 32.9749C127.547 33.5909 128.197 34.2069 128.813 34.8572C132.852 39.0326 135.863 43.8582 137.848 48.9577C143.016 62.2367 141.339 77.672 132.544 89.6847C131.62 90.951 130.627 92.1831 129.532 93.381C126.725 96.4269 123.611 98.9938 120.223 101.047L113.617 51.3192C113.617 51.2507 113.583 51.148 113.583 51.0796C113.446 50.2582 113.036 49.471 112.385 48.855C112.112 48.6154 111.804 48.4101 111.496 48.239L111.324 48.1705C110.914 47.9994 110.503 47.8967 110.092 47.8625C109.99 47.8625 109.887 47.8625 109.784 47.8625H109.75L59.6113 45.6721C61.2541 42.3524 63.3418 39.1695 65.9087 36.2604C67.1408 34.823 68.4412 33.5225 69.8102 32.3246Z" fill="#34C6F5"/>
</svg>
