<?xml version="1.0" encoding="UTF-8" standalone="no"?>
<svg
   viewBox="0 0 1281.876 1247.7308"
   version="1.1"
   id="svg48"
   sodipodi:docname="30D.svg"
   width="1424.3066"
   height="1386.3676"
   inkscape:export-filename="..\..\..\..\..\Pictures\Saved Pictures\logo.png"
   inkscape:export-xdpi="300"
   inkscape:export-ydpi="300"
   inkscape:version="1.1.2 (0a00cf5339, 2022-02-04)"
   xml:space="preserve"
   xmlns:inkscape="http://www.inkscape.org/namespaces/inkscape"
   xmlns:sodipodi="http://sodipodi.sourceforge.net/DTD/sodipodi-0.dtd"
   xmlns:xlink="http://www.w3.org/1999/xlink"
   xmlns="http://www.w3.org/2000/svg"
   xmlns:svg="http://www.w3.org/2000/svg"
   xmlns:rdf="http://www.w3.org/1999/02/22-rdf-syntax-ns#"
   xmlns:cc="http://creativecommons.org/ns#"
   xmlns:dc="http://purl.org/dc/elements/1.1/"><metadata
     id="metadata52"><rdf:RDF><cc:Work
         rdf:about=""><dc:format>image/svg+xml</dc:format><dc:type
           rdf:resource="http://purl.org/dc/dcmitype/StillImage" /></cc:Work></rdf:RDF></metadata><sodipodi:namedview
     pagecolor="#292929"
     bordercolor="#666666"
     borderopacity="1"
     objecttolerance="10"
     gridtolerance="10"
     guidetolerance="10"
     inkscape:pageopacity="0"
     inkscape:pageshadow="2"
     inkscape:window-width="1366"
     inkscape:window-height="705"
     id="namedview50"
     showgrid="false"
     inkscape:pagecheckerboard="false"
     inkscape:zoom="0.12680639"
     inkscape:cx="555.96567"
     inkscape:cy="690.02832"
     inkscape:window-x="0"
     inkscape:window-y="37"
     inkscape:window-maximized="1"
     inkscape:current-layer="Layer_1"
     inkscape:showpageshadow="2"
     inkscape:deskcolor="#292929"
     width="1e-05px"
     scale-x="0.9" /><defs
     id="defs21"><style
       id="style2">.cls-1{fill:url(#linear-gradient);}.cls-2{fill:url(#linear-gradient-2);}.cls-3{fill:url(#linear-gradient-3);}.cls-4{fill:url(#linear-gradient-4);}.cls-5{fill:url(#linear-gradient-5);}.cls-6{fill:url(#linear-gradient-6);}.cls-7{fill:url(#linear-gradient-7);}.cls-8{fill:url(#linear-gradient-8);}.cls-9{fill:url(#linear-gradient-9);}.cls-10{fill:url(#linear-gradient-10);}.cls-11{fill:url(#linear-gradient-11);}.cls-12{font-size:596.56px;fill:#806c76;font-family:Roboto-Black, Roboto;font-weight:800;letter-spacing:0.15em;}</style><linearGradient
       id="linear-gradient"
       x1="632.07001"
       y1="131.3"
       x2="655.90997"
       y2="131.3"
       gradientUnits="userSpaceOnUse"><stop
         offset="0"
         stop-color="#7c7474"
         id="stop4" /><stop
         offset="0.24"
         stop-color="#7d7175"
         id="stop6" /><stop
         offset="1"
         stop-color="#806c76"
         id="stop8" /></linearGradient><linearGradient
       id="linear-gradient-2"
       x1="689.97998"
       y1="196.82001"
       x2="713.81"
       y2="196.82001"
       xlink:href="#linear-gradient"
       gradientTransform="translate(-287.17797,19.516945)" /><linearGradient
       id="linear-gradient-3"
       x1="832.46997"
       y1="78.730003"
       x2="856.29999"
       y2="78.730003"
       xlink:href="#linear-gradient"
       gradientTransform="translate(-287.17797,19.516945)" /><linearGradient
       id="linear-gradient-4"
       x1="818.40002"
       y1="252.36"
       x2="848.84003"
       y2="252.36"
       xlink:href="#linear-gradient"
       gradientTransform="translate(-287.17797,19.516945)" /><linearGradient
       id="linear-gradient-5"
       x1="881.22998"
       y1="156.44"
       x2="905.06"
       y2="156.44"
       xlink:href="#linear-gradient"
       gradientTransform="translate(-287.17797,19.516945)" /><linearGradient
       id="linear-gradient-6"
       x1="763.13"
       y1="285.22"
       x2="786.96002"
       y2="285.22"
       xlink:href="#linear-gradient"
       gradientTransform="translate(-287.17797,19.516945)" /><linearGradient
       id="linear-gradient-7"
       x1="898"
       y1="287.5"
       x2="921.83002"
       y2="287.5"
       xlink:href="#linear-gradient"
       gradientTransform="translate(-287.17797,19.516945)" /><linearGradient
       id="linear-gradient-8"
       x1="726.56"
       y1="58.150002"
       x2="750.39001"
       y2="58.150002"
       xlink:href="#linear-gradient"
       gradientTransform="translate(-287.17797,19.516945)" /><linearGradient
       id="linear-gradient-9"
       x1="773.03998"
       y1="388.07999"
       x2="796.85999"
       y2="388.07999"
       xlink:href="#linear-gradient"
       gradientTransform="translate(-287.17797,19.516945)" /><linearGradient
       id="linear-gradient-10"
       x1="344.76999"
       y1="229.75999"
       x2="973.20001"
       y2="229.75999"
       xlink:href="#linear-gradient"
       gradientTransform="translate(-505.13091,-721.99697)" /><linearGradient
       id="linear-gradient-11"
       x1="713.59998"
       y1="353.03"
       x2="737.42999"
       y2="353.03"
       xlink:href="#linear-gradient"
       gradientTransform="translate(-287.17797,19.516945)" /></defs><g
     id="Layer_1"
     data-name="Layer 1"
     transform="translate(-662.05546,964.56398)"
     style="fill:#000000;stroke:#000000;stroke-opacity:1"><ellipse
       style="fill:#ffffff;fill-opacity:1;stroke:#ffffff;stroke-width:59.2526;stroke-opacity:1"
       id="path943"
       cx="1296.4661"
       cy="-309.73907"
       rx="604.7843"
       ry="563.2796"
       inkscape:export-filename="/home/am/Documentos/30DayMapChallengeLatam/docs/img/text866.png"
       inkscape:export-xdpi="300"
       inkscape:export-ydpi="300" /><text
       xml:space="preserve"
       style="font-style:normal;font-variant:normal;font-weight:normal;font-stretch:normal;font-size:614.795px;line-height:1;font-family:'Roboto Slab';-inkscape-font-specification:'Roboto Slab';letter-spacing:0px;word-spacing:0px;fill:#000000;fill-opacity:1;stroke:#000000;stroke-width:39.4865;stroke-miterlimit:4;stroke-dasharray:none;stroke-opacity:1"
       x="1122.875"
       y="-49.579426"
       id="text866"
       transform="scale(0.96326734,1.0381334)"
       inkscape:export-filename="/home/am/Documentos/30DayMapChallengeLatam/docs/img/text866.png"
       inkscape:export-xdpi="300"
       inkscape:export-ydpi="300"><tspan
         sodipodi:role="line"
         x="1122.875"
         y="-49.579426"
         id="tspan868"
         style="font-style:normal;font-variant:normal;font-weight:normal;font-stretch:normal;font-family:Trueno;-inkscape-font-specification:Trueno;text-align:center;text-anchor:middle;fill:#000000;stroke:#000000;stroke-width:39.4865;stroke-miterlimit:4;stroke-dasharray:none;stroke-opacity:1">30</tspan></text><path
       style="fill:#000000;stroke:#060606;stroke-width:3.84224;stroke-opacity:1"
       d="m 1535.4091,226.95774 c -8.5907,-5.18245 -18.805,-9.84954 -22.6973,-10.37102 -5.2571,-0.70416 -6.2828,-3.10024 -3.9882,-9.31897 2.5294,-6.85541 1.191,-9.07791 -7.3916,-12.27528 -5.7639,-2.14731 -12.8852,-7.29239 -15.8248,-11.43346 -5.1565,-7.26356 -4.8818,-8.09642 7.7725,-23.59902 7.2139,-8.83862 12.5389,-17.21842 11.834,-18.62154 -0.7057,-1.40326 -9.6122,-1.69671 -19.7933,-0.65228 -10.1811,1.04447 -19.384,1.56889 -20.4511,1.1653 -1.0664,-0.40386 -3.4133,-9.00877 -5.2146,-19.12294 l -3.2741,-18.38902 29.7233,-28.142236 c 16.3474,-15.478394 28.4218,-29.203035 26.8321,-30.499245 -1.5905,-1.296411 -10.1493,-0.410284 -19.02,1.969022 l -16.1289,4.325985 -3.7004,-15.702575 c -4.592,-19.481193 0.7755,-43.4292913 13.0319,-58.1477 5.8808,-7.060967 27.1322,-19.037687 57.659,-32.494881 26.5897,-11.721908 47.6238,-22.746728 46.7425,-24.49972 -0.8813,-1.75298 -7.6966,-0.84921 -15.1452,2.008276 -27.76,10.648626 -82.0598,20.168106 -84.7316,14.854151 -1.4165,-2.817676 -2.4185,-14.316049 -2.2261,-25.551677 l 0.349,-20.42869 22.6074,-13.11039 c 36.9075,-21.40335 70.269,-35.98057 103.8056,-45.35651 44.2475,-12.37062 43.7964,-12.06023 24.4329,-16.80828 -10.8101,-2.65063 -30.4083,-2.01984 -53.6862,1.72826 -71.4137,11.49852 -75.7428,10.88391 -77.2254,-10.96417 -0.5627,-8.29094 -2.7262,-18.92915 -4.8081,-23.64065 -3.545,-8.02198 -2.6833,-9.04947 13.5534,-16.16643 29.3342,-12.85737 77.6846,-26.33846 120.3207,-33.5476 58.103,-9.82436 56.9969,-9.44709 39.0604,-13.32438 -20.1854,-4.36333 -44.4704,-2.09402 -104.5306,9.76858 -58.8524,11.62374 -81.055,13.87674 -92.98,9.43417 -5.9789,-2.22737 -12.9766,-11.95671 -21.1489,-29.40446 -6.7175,-14.34169 -11.6811,-27.52087 -11.0294,-29.28679 2.1846,-5.92097 81.7545,-32.15032 166.6373,-54.93026 51.2024,-13.74105 46.8386,-12.20021 44.9858,-15.88576 -1.7724,-3.52523 -15.0575,-3.70256 -90.4126,-1.20819 -57.5928,1.90646 -96.508,6.49748 -127.1756,15.00312 -14.728,4.08503 -18.4856,3.89236 -19.4105,-0.99478 -0.6304,-3.33295 -4.0887,-14.07811 -7.6852,-23.8781 -3.5964,-9.8 -5.2815,-21.11119 -3.7454,-25.1362 8.54,-22.37116 56.0531,-46.51438 121.3246,-61.64762 17.2295,-3.99474 31.5642,-7.90855 31.8553,-8.69727 1.9231,-5.21218 -17.4984,-5.76111 -41.8262,-1.18202 -15.7235,2.95937 -31.1424,3.87058 -34.2633,2.0252 -7.3357,-4.33737 -9.7881,-24.5435 -3.8639,-31.8357 2.5255,-3.10817 15.0774,-9.93194 27.8938,-15.1638 12.8165,-5.23183 22.4804,-11.14766 21.4759,-13.1462 -1.0048,-1.99864 -3.6075,-2.40816 -5.7841,-0.91026 -9.5073,6.54372 -46.1577,12.16534 -66.8589,10.25527 -37.1419,-3.42723 -55.5976,-23.29317 -42.8383,-46.11129 4.6696,-8.35052 4.1544,-9.86841 -4.4331,-13.06764 -13.7318,-5.11561 -22.8932,-19.03653 -19.1696,-29.12825 2.9939,-8.11401 2.0703,-8.89648 -20.3694,-17.25614 -27.1945,-10.1311 -33.967,-18.09072 -20.7509,-24.38867 5.8433,-2.78484 7.7657,-5.66364 6.0545,-9.0674 -1.711,-3.40368 -8.9829,-2.94246 -22.9056,1.45227 -11.2192,3.54166 -21.4944,6.01739 -22.8337,5.50172 -1.3397,-0.51521 -3.9612,-8.63273 -5.8257,-18.03754 -3.0365,-15.31206 -4.5503,-17.22323 -14.4762,-18.27706 -24.8892,-2.64254 -51.1116,-19.6573 -54.966,-35.66545 -2.8464,-11.82269 7.7944,-19.24733 39.1543,-27.31979 30.692,-7.90024 26.5645,-14.49706 -9.0606,-14.48264 -15.4588,0.006 -31.6721,-1.88542 -36.0292,-4.20357 -8.7099,-4.63377 -17.1106,-38.23321 -10.7246,-42.89331 2.0497,-1.49641 17.2229,-3.83624 33.7179,-5.19969 28.8017,-2.38077 41.9922,-6.11869 33.1789,-9.402 -2.2932,-0.85432 -16.6879,-4.26143 -31.9885,-7.57154 -36.706,-7.94071 -45.9192,-15.77115 -37.5502,-31.91492 5.3461,-10.31491 4.878,-11.91381 -5.9054,-20.15605 -6.4417,-4.92382 -13.5115,-10.54561 -15.711,-12.4931 -6.0144,-5.32592 -8.4136,5.50574 -4.7553,21.47132 1.7852,7.7905 1.6811,18.42403 -0.2309,23.63022 -3.5404,9.5954 -1.033,29.74561 6.5487,52.90938 2.296,7.0142 2.8859,14.29031 1.3112,16.16933 -3.985,4.75431 -24.5313,-35.32886 -21.8729,-42.67118 1.1726,-3.29078 1.1114,-15.52401 -0.1723,-27.19853 -1.5407,-14.01281 -0.6462,-21.92938 2.6322,-23.29494 6.1213,-2.54962 3.5003,-24.62418 -5.1466,-43.34568 l -6.0698,-13.14254 9.105,3.39198 c 15.2891,5.69581 55.2371,35.74735 60.9318,45.83679 4.3487,7.70413 13.1165,12.80996 46.2005,26.90401 33.7069,14.35937 43.4827,20.10699 56.017,32.93449 21.2804,21.77845 22.4465,26.26322 11.152,42.90101 -11.2419,16.56101 -21.599,42.84337 -17.4879,44.37494 6.0895,2.26859 8.1726,50.04525 2.5297,58.00117 -5.3583,7.5553 -5.0901,7.85579 8.155,9.12337 7.5336,0.72108 14.464,1.59666 15.4007,1.94562 0.9372,0.34907 17.8195,-6.55281 37.5162,-15.33772 27.4689,-12.25098 39.0445,-15.31457 49.6837,-13.14921 13.239,2.6943 13.9322,3.58729 15.2406,19.63159 1.2786,15.67221 0.7935,17.08442 -7.1715,20.88034 -7.9886,3.80683 -8.26,4.85547 -4.1779,16.15456 3.5141,9.73024 2.8226,14.90676 -3.5519,26.58473 -7.5299,13.79334 -7.4475,14.87341 1.6931,22.11835 5.9971,4.7533 9.7496,12.09488 9.9814,19.52821 0.2044,6.55127 2.9634,12.87692 6.1312,14.05707 3.168,1.1802 37.4921,-0.27721 76.2763,-3.2385 38.7843,-2.96126 72.6933,-4.57331 75.354,-3.58211 2.6608,0.99128 6.2427,8.38374 7.9604,16.42797 l 3.1227,14.62561 -13.5365,8.98263 c -24.068,15.97099 -21.7634,18.35842 21.7723,22.55637 15.7635,1.52003 31.5614,3.84425 35.1065,5.16497 8.783,3.272 11.4573,23.69935 4.1529,31.72192 -8.1274,8.92655 -38.0726,20.15561 -69.2962,25.98572 -14.718,2.74816 -27.2701,6.33502 -27.8941,7.97074 -1.8367,4.81586 16.0863,5.69881 66.6081,3.28183 43.3357,-2.07325 50.9364,-1.26917 86.5834,9.15846 21.4923,6.28696 41.4528,13.04431 44.3563,15.01609 2.9034,1.97171 7.3571,14.89969 9.8974,28.72888 l 4.6189,25.14407 -18.685,15.61734 c -12.4326,10.39094 -17.8678,17.24328 -16.2426,20.47625 2.7944,5.55927 42.7372,7.92557 98.8954,5.85861 21.8036,-0.80252 42.2919,0.92761 52.9245,4.46938 15.4109,5.13349 18.0302,7.5056 23.4515,21.23734 3.3569,8.50229 5.3557,20.82061 4.4421,27.37418 -1.7498,12.54164 -3.9186,13.87047 -38.0822,23.3279 l -14.0956,3.90213 17.4308,4.51725 c 9.5874,2.4846 21.3056,4.82448 26.0412,5.20002 7.4252,0.58884 9.0782,4.56787 12.0082,28.91282 2.3383,19.42552 1.7487,29.47866 -1.8905,32.23349 -2.9094,2.20168 -26.2802,8.20346 -51.9348,13.33737 l -46.6453,9.33418 9.4172,16.87474 c 21.5714,38.65319 -10.7604,60.47607 -130.0783,87.80068 -28.8082,6.597333 -59.9541,15.747125 -69.2132,20.332991 -18.1753,9.001811 -19.923,13.564395 -14.8712,38.8313077 l 2.7221,13.6187703 -44.7123,32.068815 c -54.4556,39.057339 -55.4289,40.075011 -49.5351,51.799057 4.7449,9.437859 0.5859,36.476009 -10.5376,68.519049 -4.6502,13.39695 -4.5056,17.11422 0.751,19.07466 3.5908,1.33903 5.6624,4.78313 4.6034,7.653 -1.0587,2.86994 -3.6045,4.59236 -5.6567,3.82784 -10.1727,-3.78974 -4.2402,6.43419 10.1778,17.53938 17.6155,13.56803 27.0593,28.33901 14.6641,22.93625 -3.7651,-1.64128 -13.875,-7.22417 -22.4669,-12.40707 z m 81.5714,-873.88059 c -2.2206,-1.92945 -2.5596,-4.58602 -0.7541,-5.90379 5.0998,-3.72171 16.5567,1.9024 19.5723,9.60779 2.2907,5.8528 1.3398,6.38515 -6.0312,3.37602 -4.8126,-1.96447 -10.5668,-5.15074 -12.787,-7.08002 z m -56.7619,-27.24706 c -5.4165,-4.29932 -12.3799,-12.31142 -15.4741,-17.80467 -4.3576,-7.73607 -8.7407,-10.56612 -19.4398,-12.55235 -7.7419,-1.43731 -14.2544,-4.43402 -14.8163,-6.81765 -1.2799,-5.42992 13.667,-7.09889 25.1761,-2.81128 9.7437,3.62993 35.4782,28.63768 46.1148,44.81212 l 6.7963,10.33485 -9.2547,-3.67219 c -5.09,-2.01965 -13.6858,-7.18954 -19.1023,-11.48885 z"
       id="path522"
       sodipodi:nodetypes="sssssssscscssscsssscsscsssssssssssssssssssssssssssssssssssscsssssssssssssscsscssscssssssssssssssssssssscsssssssssscssssssscssssscsssscsssssssssssssssssssscsss"
       inkscape:export-filename="/home/am/Documentos/30DayMapChallengeLatam/docs/img/text866.png"
       inkscape:export-xdpi="300"
       inkscape:export-ydpi="300" /></g></svg>
